<svg width="22" height="16" viewBox="0 0 22 16" fill="none" xmlns="http://www.w3.org/2000/svg">
<path d="M4.86111 15.5555C4.05093 15.5555 3.36227 15.272 2.79514 14.7048C2.22801 14.1377 1.94444 13.4491 1.94444 12.6389H0V1.94443C0 1.40971 0.190394 0.951954 0.571181 0.571167C0.951968 0.19038 1.40972 -1.33514e-05 1.94444 -1.33514e-05H15.5556V3.88888H18.4722L21.3889 7.77776V12.6389H19.4444C19.4444 13.4491 19.1609 14.1377 18.5938 14.7048C18.0266 15.272 17.338 15.5555 16.5278 15.5555C15.7176 15.5555 15.0289 15.272 14.4618 14.7048C13.8947 14.1377 13.6111 13.4491 13.6111 12.6389H7.77778C7.77778 13.4491 7.49421 14.1377 6.92708 14.7048C6.35995 15.272 5.6713 15.5555 4.86111 15.5555ZM4.86111 13.6111C5.13657 13.6111 5.36748 13.5179 5.55382 13.3316C5.74016 13.1452 5.83333 12.9143 5.83333 12.6389C5.83333 12.3634 5.74016 12.1325 5.55382 11.9462C5.36748 11.7598 5.13657 11.6667 4.86111 11.6667C4.58565 11.6667 4.35475 11.7598 4.1684 11.9462C3.98206 12.1325 3.88889 12.3634 3.88889 12.6389C3.88889 12.9143 3.98206 13.1452 4.1684 13.3316C4.35475 13.5179 4.58565 13.6111 4.86111 13.6111ZM1.94444 10.6944H2.72222C2.99769 10.4028 3.31366 10.1678 3.67014 9.98957C4.02662 9.81133 4.42361 9.72221 4.86111 9.72221C5.29861 9.72221 5.6956 9.81133 6.05208 9.98957C6.40857 10.1678 6.72454 10.4028 7 10.6944H13.6111V1.94443H1.94444V10.6944ZM16.5278 13.6111C16.8032 13.6111 17.0341 13.5179 17.2205 13.3316C17.4068 13.1452 17.5 12.9143 17.5 12.6389C17.5 12.3634 17.4068 12.1325 17.2205 11.9462C17.0341 11.7598 16.8032 11.6667 16.5278 11.6667C16.2523 11.6667 16.0214 11.7598 15.8351 11.9462C15.6487 12.1325 15.5556 12.3634 15.5556 12.6389C15.5556 12.9143 15.6487 13.1452 15.8351 13.3316C16.0214 13.5179 16.2523 13.6111 16.5278 13.6111ZM15.5556 8.74999H19.6875L17.5 5.83332H15.5556V8.74999Z" fill="white"/>
</svg>
