<svg width="18" height="20" viewBox="0 0 18 20" fill="none" xmlns="http://www.w3.org/2000/svg">
<path d="M1.94444 19.4445C1.40972 19.4445 0.951968 19.2541 0.571181 18.8733C0.190394 18.4925 0 18.0347 0 17.5V3.8889C0 3.35418 0.190394 2.89643 0.571181 2.51564C0.951968 2.13485 1.40972 1.94446 1.94444 1.94446H6.02778C6.23843 1.36112 6.59086 0.891216 7.08507 0.534735C7.57928 0.178253 8.13426 1.33514e-05 8.75 1.33514e-05C9.36574 1.33514e-05 9.92072 0.178253 10.4149 0.534735C10.9091 0.891216 11.2616 1.36112 11.4722 1.94446H15.5556C16.0903 1.94446 16.548 2.13485 16.9288 2.51564C17.3096 2.89643 17.5 3.35418 17.5 3.8889V17.5C17.5 18.0347 17.3096 18.4925 16.9288 18.8733C16.548 19.2541 16.0903 19.4445 15.5556 19.4445H1.94444ZM1.94444 17.5H15.5556V3.8889H1.94444V17.5ZM3.88889 15.5556H10.6944V13.6111H3.88889V15.5556ZM3.88889 11.6667H13.6111V9.72224H3.88889V11.6667ZM3.88889 7.77779H13.6111V5.83335H3.88889V7.77779ZM8.75 3.15973C8.96065 3.15973 9.13484 3.09087 9.27257 2.95314C9.4103 2.81541 9.47917 2.64122 9.47917 2.43057C9.47917 2.21992 9.4103 2.04573 9.27257 1.908C9.13484 1.77027 8.96065 1.7014 8.75 1.7014C8.53935 1.7014 8.36516 1.77027 8.22743 1.908C8.0897 2.04573 8.02083 2.21992 8.02083 2.43057C8.02083 2.64122 8.0897 2.81541 8.22743 2.95314C8.36516 3.09087 8.53935 3.15973 8.75 3.15973Z" fill="white"/>
</svg>
