<svg width="33" height="33" viewBox="0 0 33 33" fill="none" xmlns="http://www.w3.org/2000/svg">
<path d="M14.925 32.8501V29.8501C11.8 29.5001 9.11875 28.2063 6.88125 25.9688C4.64375 23.7313 3.35 21.0501 3 17.9251H0V14.9251H3C3.35 11.8001 4.64375 9.11885 6.88125 6.88135C9.11875 4.64385 11.8 3.3501 14.925 3.0001V9.53674e-05H17.925V3.0001C21.05 3.3501 23.7313 4.64385 25.9688 6.88135C28.2063 9.11885 29.5 11.8001 29.85 14.9251H32.85V17.9251H29.85C29.5 21.0501 28.2063 23.7313 25.9688 25.9688C23.7313 28.2063 21.05 29.5001 17.925 29.8501V32.8501H14.925ZM16.425 26.9251C19.325 26.9251 21.8 25.9001 23.85 23.8501C25.9 21.8001 26.925 19.3251 26.925 16.4251C26.925 13.5251 25.9 11.0501 23.85 9.0001C21.8 6.9501 19.325 5.9251 16.425 5.9251C13.525 5.9251 11.05 6.9501 9 9.0001C6.95 11.0501 5.925 13.5251 5.925 16.4251C5.925 19.3251 6.95 21.8001 9 23.8501C11.05 25.9001 13.525 26.9251 16.425 26.9251ZM16.425 22.4251C14.775 22.4251 13.3625 21.8376 12.1875 20.6626C11.0125 19.4876 10.425 18.0751 10.425 16.4251C10.425 14.7751 11.0125 13.3626 12.1875 12.1876C13.3625 11.0126 14.775 10.4251 16.425 10.4251C18.075 10.4251 19.4875 11.0126 20.6625 12.1876C21.8375 13.3626 22.425 14.7751 22.425 16.4251C22.425 18.0751 21.8375 19.4876 20.6625 20.6626C19.4875 21.8376 18.075 22.4251 16.425 22.4251ZM16.425 19.4251C17.25 19.4251 17.9563 19.1313 18.5438 18.5438C19.1313 17.9563 19.425 17.2501 19.425 16.4251C19.425 15.6001 19.1313 14.8938 18.5438 14.3063C17.9563 13.7188 17.25 13.4251 16.425 13.4251C15.6 13.4251 14.8938 13.7188 14.3063 14.3063C13.7188 14.8938 13.425 15.6001 13.425 16.4251C13.425 17.2501 13.7188 17.9563 14.3063 18.5438C14.8938 19.1313 15.6 19.4251 16.425 19.4251Z" fill="#0A6F7C"/>
</svg>
